<svg width="47" height="35" viewBox="0 0 47 35" fill="none" xmlns="http://www.w3.org/2000/svg">
<path d="M18.4746 15.6089C17.5249 15.2924 17.5249 13.9514 18.4746 13.6349L24.0493 11.7787C25.2748 11.3702 26.3882 10.6819 27.3014 9.76828C28.2146 8.8547 28.9024 7.741 29.3103 6.51546L31.1666 0.944254C31.4832 -0.00538389 32.8244 -0.00538395 33.1409 0.944254L34.9972 6.51834C35.4058 7.74366 36.0943 8.85698 37.0079 9.77006C37.9216 10.6831 39.0354 11.3709 40.2611 11.7787L45.8329 13.6349C46.0409 13.7031 46.222 13.8353 46.3504 14.0125C46.4788 14.1898 46.5479 14.403 46.5479 14.6219C46.5479 14.8408 46.4788 15.054 46.3504 15.2313C46.222 15.4085 46.0409 15.5407 45.8329 15.6089L40.2582 17.4651C39.0331 17.8733 37.9198 18.5612 37.0067 19.4743C36.0935 20.3873 35.4056 21.5005 34.9972 22.7255L33.1409 28.2995C33.0727 28.5075 32.9405 28.6886 32.7632 28.817C32.5859 28.9453 32.3727 29.0145 32.1538 29.0145C31.9349 29.0145 31.7216 28.9453 31.5443 28.817C31.3671 28.6886 31.2349 28.5075 31.1666 28.2995L29.3103 22.7255C28.902 21.5005 28.214 20.3873 27.3009 19.4743C26.3877 18.5612 25.2745 17.8733 24.0493 17.4651L18.4746 15.6089ZM3.79964 26.7255C3.67501 26.6842 3.56655 26.6047 3.48968 26.4983C3.41281 26.3919 3.37143 26.2639 3.37143 26.1326C3.37143 26.0014 3.41281 25.8734 3.48968 25.767C3.56655 25.6606 3.67501 25.5811 3.79964 25.5398L7.14389 24.4262C8.6347 23.9283 9.80317 22.76 10.3011 21.2694L11.4149 17.9255C11.4561 17.8009 11.5356 17.6924 11.6421 17.6156C11.7485 17.5387 11.8764 17.4973 12.0077 17.4973C12.139 17.4973 12.267 17.5387 12.3734 17.6156C12.4798 17.6924 12.5593 17.8009 12.6006 17.9255L13.7144 21.2694C13.9593 22.0045 14.3722 22.6726 14.9202 23.2205C15.4682 23.7684 16.1363 24.1812 16.8716 24.4262L20.2158 25.5398C20.3404 25.5811 20.4489 25.6606 20.5258 25.767C20.6026 25.8734 20.644 26.0014 20.644 26.1326C20.644 26.2639 20.6026 26.3919 20.5258 26.4983C20.4489 26.6047 20.3404 26.6842 20.2158 26.7255L16.8716 27.8391C16.1363 28.0841 15.4682 28.4969 14.9202 29.0448C14.3722 29.5927 13.9593 30.2608 13.7144 30.9959L12.6006 34.3398C12.5593 34.4644 12.4798 34.5729 12.3734 34.6497C12.267 34.7266 12.139 34.768 12.0077 34.768C11.8764 34.768 11.7485 34.7266 11.6421 34.6497C11.5356 34.5729 11.4561 34.4644 11.4149 34.3398L10.3011 30.9959C10.0561 30.2608 9.64326 29.5927 9.09525 29.0448C8.54725 28.4969 7.87915 28.0841 7.14389 27.8391L3.79964 26.7255ZM0.780612 6.38309C0.698665 6.35468 0.627605 6.30144 0.577314 6.23079C0.527023 6.16013 0.499999 6.07557 0.499999 5.98884C0.499999 5.90212 0.527023 5.81755 0.577314 5.74689C0.627605 5.67624 0.698665 5.623 0.780612 5.5946L3.00819 4.85215C4.00398 4.52122 4.78392 3.74137 5.11489 2.74569L5.85742 0.51836C5.88583 0.43642 5.93907 0.365368 6.00973 0.315082C6.08039 0.264793 6.16497 0.237777 6.2517 0.237777C6.33844 0.237777 6.42302 0.264793 6.49368 0.315082C6.56434 0.365368 6.61758 0.43642 6.64599 0.51836L7.38852 2.74569C7.55177 3.23637 7.82717 3.68223 8.19287 4.04789C8.55857 4.41355 9.00449 4.68892 9.49522 4.85215L11.7228 5.5946C11.8047 5.623 11.8758 5.67624 11.9261 5.74689C11.9764 5.81755 12.0034 5.90212 12.0034 5.98884C12.0034 6.07556 11.9764 6.16013 11.9261 6.23079C11.8758 6.30144 11.8047 6.35468 11.7228 6.38308L9.49522 7.12553C9.00449 7.28876 8.55857 7.56413 8.19287 7.92979C7.82717 8.29544 7.55177 8.74132 7.38852 9.23199L6.64599 11.4564C6.61758 11.5384 6.56434 11.6094 6.49368 11.6597C6.42302 11.71 6.33844 11.737 6.25171 11.737C6.16497 11.737 6.08039 11.71 6.00973 11.6597C5.93907 11.6094 5.88583 11.5384 5.85742 11.4564L5.11489 9.22912C4.78392 8.23344 4.00398 7.45358 3.00819 7.12265L0.780612 6.38309Z" fill="#F19E93"/>
</svg>
