<svg width="185" height="41" viewBox="0 0 185 41" fill="none" xmlns="http://www.w3.org/2000/svg">
<rect x="0.13385" y="0.5" width="184" height="40" rx="14.8577" fill="#F19E93"/>
<path d="M52.2151 27.27C51.2851 27.27 50.4451 27.111 49.6951 26.793C48.9511 26.469 48.3361 26.01 47.8501 25.416C47.3701 24.816 47.0581 24.105 46.9141 23.283L48.8761 22.986C49.0741 23.778 49.4881 24.396 50.1181 24.84C50.7481 25.278 51.4831 25.497 52.3231 25.497C52.8451 25.497 53.3251 25.416 53.7631 25.254C54.2011 25.086 54.5521 24.849 54.8161 24.543C55.0861 24.231 55.2211 23.859 55.2211 23.427C55.2211 23.193 55.1791 22.986 55.0951 22.806C55.0171 22.626 54.9061 22.47 54.7621 22.338C54.6241 22.2 54.4531 22.083 54.2491 21.987C54.0511 21.885 53.8321 21.798 53.5921 21.726L50.2711 20.745C49.9471 20.649 49.6171 20.526 49.2811 20.376C48.9451 20.22 48.6361 20.019 48.3541 19.773C48.0781 19.521 47.8531 19.212 47.6791 18.846C47.5051 18.474 47.4181 18.024 47.4181 17.496C47.4181 16.698 47.6221 16.023 48.0301 15.471C48.4441 14.913 49.0021 14.493 49.7041 14.211C50.4061 13.923 51.1921 13.779 52.0621 13.779C52.9381 13.791 53.7211 13.947 54.4111 14.247C55.1071 14.547 55.6831 14.979 56.1391 15.543C56.6011 16.101 56.9191 16.779 57.0931 17.577L55.0771 17.919C54.9871 17.433 54.7951 17.016 54.5011 16.668C54.2071 16.314 53.8471 16.044 53.4211 15.858C52.9951 15.666 52.5331 15.567 52.0351 15.561C51.5551 15.549 51.1141 15.621 50.7121 15.777C50.3161 15.933 49.9981 16.152 49.7581 16.434C49.5241 16.716 49.4071 17.04 49.4071 17.406C49.4071 17.766 49.5121 18.057 49.7221 18.279C49.9321 18.501 50.1901 18.678 50.4961 18.81C50.8081 18.936 51.1171 19.041 51.4231 19.125L53.8171 19.8C54.1171 19.884 54.4561 19.998 54.8341 20.142C55.2181 20.28 55.5871 20.475 55.9411 20.727C56.3011 20.979 56.5981 21.315 56.8321 21.735C57.0661 22.149 57.1831 22.671 57.1831 23.301C57.1831 23.955 57.0511 24.531 56.7871 25.029C56.5231 25.521 56.1601 25.935 55.6981 26.271C55.2421 26.601 54.7141 26.85 54.1141 27.018C53.5141 27.186 52.8811 27.27 52.2151 27.27ZM63.4121 27.27C62.4461 27.27 61.5971 27.06 60.8651 26.64C60.1391 26.214 59.5721 25.623 59.1641 24.867C58.7621 24.105 58.5611 23.223 58.5611 22.221C58.5611 21.159 58.7591 20.238 59.1551 19.458C59.5571 18.678 60.1151 18.075 60.8291 17.649C61.5431 17.223 62.3741 17.01 63.3221 17.01C64.3121 17.01 65.1551 17.241 65.8511 17.703C66.5471 18.159 67.0661 18.81 67.4081 19.656C67.7561 20.502 67.8941 21.507 67.8221 22.671H65.9411V21.987C65.9291 20.859 65.7131 20.025 65.2931 19.485C64.8791 18.945 64.2461 18.675 63.3941 18.675C62.4521 18.675 61.7441 18.972 61.2701 19.566C60.7961 20.16 60.5591 21.018 60.5591 22.14C60.5591 23.208 60.7961 24.036 61.2701 24.624C61.7441 25.206 62.4281 25.497 63.3221 25.497C63.9101 25.497 64.4171 25.365 64.8431 25.101C65.2751 24.831 65.6111 24.447 65.8511 23.949L67.6961 24.534C67.3181 25.404 66.7451 26.079 65.9771 26.559C65.2091 27.033 64.3541 27.27 63.4121 27.27ZM59.9471 22.671V21.204H66.8861V22.671H59.9471ZM72.4106 27.27C71.6906 27.27 71.0876 27.138 70.6016 26.874C70.1156 26.604 69.7466 26.25 69.4946 25.812C69.2486 25.368 69.1256 24.882 69.1256 24.354C69.1256 23.862 69.2126 23.43 69.3866 23.058C69.5606 22.686 69.8186 22.371 70.1606 22.113C70.5026 21.849 70.9226 21.636 71.4206 21.474C71.8526 21.348 72.3416 21.237 72.8876 21.141C73.4336 21.045 74.0066 20.955 74.6066 20.871C75.2126 20.787 75.8126 20.703 76.4066 20.619L75.7226 20.997C75.7346 20.235 75.5726 19.671 75.2366 19.305C74.9066 18.933 74.3366 18.747 73.5266 18.747C73.0166 18.747 72.5486 18.867 72.1226 19.107C71.6966 19.341 71.3996 19.731 71.2316 20.277L69.4766 19.737C69.7166 18.903 70.1726 18.24 70.8446 17.748C71.5226 17.256 72.4226 17.01 73.5446 17.01C74.4146 17.01 75.1706 17.16 75.8126 17.46C76.4606 17.754 76.9346 18.222 77.2346 18.864C77.3906 19.182 77.4866 19.518 77.5226 19.872C77.5586 20.226 77.5766 20.607 77.5766 21.015V27H75.9116V24.777L76.2356 25.065C75.8336 25.809 75.3206 26.364 74.6966 26.73C74.0786 27.09 73.3166 27.27 72.4106 27.27ZM72.7436 25.731C73.2776 25.731 73.7366 25.638 74.1206 25.452C74.5046 25.26 74.8136 25.017 75.0476 24.723C75.2816 24.429 75.4346 24.123 75.5066 23.805C75.6086 23.517 75.6656 23.193 75.6776 22.833C75.6956 22.473 75.7046 22.185 75.7046 21.969L76.3166 22.194C75.7226 22.284 75.1826 22.365 74.6966 22.437C74.2106 22.509 73.7696 22.581 73.3736 22.653C72.9836 22.719 72.6356 22.8 72.3296 22.896C72.0716 22.986 71.8406 23.094 71.6366 23.22C71.4386 23.346 71.2796 23.499 71.1596 23.679C71.0456 23.859 70.9886 24.078 70.9886 24.336C70.9886 24.588 71.0516 24.822 71.1776 25.038C71.3036 25.248 71.4956 25.416 71.7536 25.542C72.0116 25.668 72.3416 25.731 72.7436 25.731ZM79.9136 27V17.28H81.5876V19.638L81.3536 19.332C81.4736 19.02 81.6296 18.735 81.8216 18.477C82.0136 18.213 82.2356 17.997 82.4876 17.829C82.7336 17.649 83.0066 17.511 83.3066 17.415C83.6126 17.313 83.9246 17.253 84.2426 17.235C84.5606 17.211 84.8666 17.226 85.1606 17.28V19.044C84.8426 18.96 84.4886 18.936 84.0986 18.972C83.7146 19.008 83.3606 19.131 83.0366 19.341C82.7306 19.539 82.4876 19.779 82.3076 20.061C82.1336 20.343 82.0076 20.658 81.9296 21.006C81.8516 21.348 81.8126 21.711 81.8126 22.095V27H79.9136ZM90.8568 27.27C89.8608 27.27 89.0148 27.048 88.3188 26.604C87.6228 26.16 87.0888 25.551 86.7168 24.777C86.3508 24.003 86.1648 23.124 86.1588 22.14C86.1648 21.138 86.3568 20.253 86.7348 19.485C87.1128 18.711 87.6528 18.105 88.3548 17.667C89.0568 17.229 89.8998 17.01 90.8838 17.01C91.9458 17.01 92.8518 17.274 93.6018 17.802C94.3578 18.33 94.8558 19.053 95.0958 19.971L93.2238 20.511C93.0378 19.965 92.7318 19.542 92.3058 19.242C91.8858 18.936 91.4028 18.783 90.8568 18.783C90.2388 18.783 89.7318 18.93 89.3358 19.224C88.9398 19.512 88.6458 19.908 88.4538 20.412C88.2618 20.916 88.1628 21.492 88.1568 22.14C88.1628 23.142 88.3908 23.952 88.8408 24.57C89.2968 25.188 89.9688 25.497 90.8568 25.497C91.4628 25.497 91.9518 25.359 92.3238 25.083C92.7018 24.801 92.9898 24.399 93.1878 23.877L95.0958 24.327C94.7778 25.275 94.2528 26.004 93.5208 26.514C92.7888 27.018 91.9008 27.27 90.8568 27.27ZM103.751 27V22.221C103.751 21.843 103.718 21.456 103.652 21.06C103.592 20.658 103.472 20.286 103.292 19.944C103.118 19.602 102.869 19.326 102.545 19.116C102.227 18.906 101.81 18.801 101.294 18.801C100.958 18.801 100.64 18.858 100.34 18.972C100.04 19.08 99.7763 19.257 99.5483 19.503C99.3263 19.749 99.1493 20.073 99.0173 20.475C98.8913 20.877 98.8283 21.366 98.8283 21.942L97.6583 21.501C97.6583 20.619 97.8233 19.842 98.1533 19.17C98.4833 18.492 98.9573 17.964 99.5753 17.586C100.193 17.208 100.94 17.019 101.816 17.019C102.488 17.019 103.052 17.127 103.508 17.343C103.964 17.559 104.333 17.844 104.615 18.198C104.903 18.546 105.122 18.927 105.272 19.341C105.422 19.755 105.524 20.16 105.578 20.556C105.632 20.952 105.659 21.3 105.659 21.6V27H103.751ZM96.9203 27V14.04H98.6033V21.033H98.8283V27H96.9203Z" fill="#F8F8F8"/>
<g clip-path="url(#clip0_105_1481)">
<path d="M159.596 29.8243L153.518 23.7464C154.979 21.993 155.707 19.7441 155.552 17.4675C155.396 15.1909 154.369 13.0618 152.684 11.5232C150.999 9.98455 148.785 9.15486 146.504 9.20671C144.222 9.25855 142.049 10.1879 140.435 11.8015C138.822 13.4151 137.892 15.5886 137.84 17.87C137.789 20.1513 138.618 22.3648 140.157 24.05C141.695 25.7352 143.825 26.7624 146.101 26.9178C148.378 27.0732 150.627 26.3449 152.38 24.8845L158.458 30.9624L159.596 29.8243ZM139.476 18.0856C139.476 16.6531 139.901 15.2527 140.697 14.0616C141.493 12.8704 142.624 11.9421 143.948 11.3938C145.271 10.8456 146.727 10.7022 148.132 10.9817C149.537 11.2611 150.828 11.951 151.841 12.964C152.854 13.9769 153.544 15.2675 153.823 16.6726C154.103 18.0776 153.959 19.534 153.411 20.8575C152.863 22.181 151.935 23.3122 150.743 24.1081C149.552 24.904 148.152 25.3288 146.719 25.3288C144.799 25.3267 142.958 24.5629 141.6 23.205C140.242 21.8471 139.478 20.006 139.476 18.0856Z" fill="white"/>
</g>
<defs>
<clipPath id="clip0_105_1481">
<rect width="25.7534" height="25.7534" fill="white" transform="translate(136.257 7.62329)"/>
</clipPath>
</defs>
</svg>
